<svg xmlns="http://www.w3.org/2000/svg" width="375" viewBox="0 0 375 375" height="375" version="1.0"><path fill="#FFF" d="M-37.5 -37.5H412.5V412.5H-37.5z"/><path fill="#FFF" d="M-37.5 -37.5H412.5V412.5H-37.5z"/><path fill="#FFF" d="M-37.5 -37.5H412.5V412.5H-37.5z"/><path fill="#FBCD93" d="M 50.503906 250.226562 L 28.554688 263.550781 L 2.90625 357.996094 C 0.0078125 368.648438 6.355469 374.996094 17.007812 372.101562 L 111.453125 346.453125 L 124.777344 324.5 L 50.503906 250.226562"/><path fill="#FABF74" d="M 124.777344 324.5 L 105.632812 305.355469 C 105.332031 307.207031 105.097656 308.96875 104.832031 310.4375 C 103.878906 315.679688 103.238281 321.601562 100.683594 326.371094 C 93.976562 338.910156 80.136719 347.3125 66.464844 350.132812 C 45.894531 354.371094 23.96875 348.234375 9.511719 333.652344 L 2.90625 357.996094 C 0.0078125 368.648438 6.355469 374.996094 17.007812 372.101562 L 111.453125 346.453125 L 124.777344 324.5"/><path fill="#23100D" d="M 6.492188 344.769531 L 2.902344 357.996094 C 0.0078125 368.648438 6.355469 374.996094 17.007812 372.101562 L 30.234375 368.507812 L 6.492188 344.769531"/><path fill="#FBC322" d="M 227.910156 64.195312 L 28.554688 263.550781 L 53.570312 259.261719 L 49.28125 284.277344 L 74.296875 279.988281 L 70.003906 305 L 95.019531 300.707031 L 90.730469 325.726562 L 115.746094 321.433594 L 111.453125 346.453125 L 310.808594 147.09375 L 227.910156 64.195312"/><path fill="#F9AD24" d="M 296.183594 161.714844 L 310.808594 147.09375 L 227.910156 64.195312 L 213.285156 78.816406 L 296.183594 161.714844"/><path fill="#F9AD24" d="M 150.707031 281.667969 C 126.332031 284.367188 101.773438 275.429688 84.921875 257.375 C 76.546875 248.410156 70.007812 238.214844 64.914062 227.191406 L 28.554688 263.550781 L 53.570312 259.261719 L 49.28125 284.277344 L 74.296875 279.988281 L 70.003906 305 L 95.019531 300.707031 L 90.730469 325.726562 L 115.746094 321.433594 L 111.453125 346.453125 L 186.539062 271.363281 C 175.117188 276.582031 163.1875 280.28125 150.707031 281.667969"/><path fill="#DE5CB5" d="M 327.214844 130.6875 L 365.632812 92.269531 C 375.003906 82.898438 375.003906 67.703125 365.632812 58.328125 L 316.679688 9.378906 C 307.304688 0.00390625 292.105469 0 282.734375 9.375 L 244.316406 47.789062 L 327.214844 130.6875"/><path fill="#DD4EAF" d="M 372.601562 74.082031 C 358.691406 87.46875 338.199219 92.421875 317.972656 83.863281 C 301.421875 76.859375 286.84375 64.371094 277.566406 48.945312 C 273.464844 42.121094 268.996094 34.035156 266.441406 25.660156 L 244.316406 47.789062 L 327.21875 130.6875 L 365.632812 92.269531 C 370.625 87.273438 372.9375 80.628906 372.601562 74.082031"/><path fill="#D1D0D0" d="M 253.144531 38.964844 L 222.648438 69.457031 L 305.546875 152.351562 L 336.039062 121.863281 L 253.144531 38.964844"/><path fill="#EE2275" d="M 243.78125 48.324219 L 232.011719 60.09375 L 314.910156 142.992188 L 326.675781 131.226562 L 243.78125 48.324219"/><path fill="#FDDC53" d="M 259.132812 124.660156 L 108.984375 274.804688 C 116.667969 278.378906 124.902344 280.695312 133.347656 281.648438 L 274.730469 140.261719 L 259.132812 124.660156"/><path fill="#FDE4C1" d="M 95.019531 300.707031 L 80.609375 303.183594 L 95.019531 300.707031 L 91.027344 323.96875 L 95.019531 300.707031"/><path fill="#FCCE52" d="M 268.492188 115.296875 L 259.132812 124.660156 L 274.730469 140.261719 L 284.09375 130.898438 L 268.492188 115.296875"/><path fill="#FCCE52" d="M 108.984375 274.804688 L 80.609375 303.183594 L 95.019531 300.707031 L 91.03125 323.964844 L 133.347656 281.648438 C 124.902344 280.695312 116.667969 278.378906 108.984375 274.804688"/><path fill="#E6E6E6" d="M 298.984375 84.808594 L 289.621094 94.167969 L 305.222656 109.769531 L 314.582031 100.410156 L 298.984375 84.808594 M 277.851562 105.9375 L 268.492188 115.296875 L 284.09375 130.898438 L 293.453125 121.539062 L 277.851562 105.9375"/><path fill="#F25297" d="M 289.621094 94.167969 L 277.851562 105.9375 L 293.453125 121.539062 L 305.222656 109.769531 L 289.621094 94.167969"/><path fill="#FDDC53" d="M 282.222656 147.75 L 148.054688 281.914062 C 148.941406 281.847656 149.824219 281.765625 150.707031 281.667969 C 156.394531 281.035156 161.96875 279.921875 167.429688 278.40625 L 290.15625 155.683594 L 282.222656 147.75"/><path fill="#FDDBAA" d="M 115.746094 321.433594 L 113.945312 331.890625 L 113.953125 331.882812 L 115.746094 321.433594"/><path fill="#FCCE52" d="M 291.582031 138.390625 L 282.222656 147.75 L 290.15625 155.683594 L 299.515625 146.324219 L 291.582031 138.390625"/><path fill="#FCCE52" d="M 167.429688 278.40625 C 161.96875 279.921875 156.394531 281.035156 150.707031 281.667969 C 149.824219 281.765625 148.941406 281.847656 148.054688 281.914062 L 107.046875 322.921875 L 115.746094 321.433594 L 113.953125 331.882812 L 167.429688 278.40625"/><path fill="#E6E6E6" d="M 322.074219 107.898438 L 312.714844 117.261719 L 320.644531 125.191406 L 330.007812 115.832031 L 322.074219 107.898438 M 300.945312 129.027344 L 291.582031 138.386719 L 299.519531 146.320312 L 308.878906 136.960938 L 300.945312 129.027344"/><path fill="#F25297" d="M 312.710938 117.261719 L 300.945312 129.027344 L 308.878906 136.960938 L 320.644531 125.191406 L 312.710938 117.261719"/></svg>