<svg xmlns="http://www.w3.org/2000/svg" width="375" viewBox="0 0 375 375" height="375" version="1.0"><path fill="#FFF" d="M-37.5 -37.5H412.5V412.5H-37.5z"/><path fill="#FFF" d="M-37.5 -37.5H412.5V412.5H-37.5z"/><path d="M 371.132812 127.371094 C 370.902344 127.128906 370.660156 126.972656 370.347656 126.816406 C 366.125 119.683594 358.882812 114.261719 352.679688 108.9375 C 344.441406 101.769531 336.8125 93.839844 328.699219 86.515625 C 319.785156 78.429688 310.667969 70.585938 301.367188 62.984375 C 294.246094 57.210938 286.480469 53.300781 279.25 48.011719 C 277.410156 46.65625 275.632812 47.492188 274.714844 48.96875 C 259.875 55.09375 246.066406 62.984375 231 68.796875 C 216.597656 74.328125 200.765625 80.308594 187.632812 88.308594 C 171.5625 98.101562 151.714844 104.152344 134.53125 111.839844 C 116.984375 119.648438 100.441406 129.113281 82.0625 135.253906 C 79.75 136.015625 79.230469 138.316406 79.871094 140.117188 C 55.25 147.078125 27.59375 155.515625 8.863281 173.480469 C 8.824219 173.566406 8.824219 173.601562 8.777344 173.636719 C 6.878906 173.515625 5.039062 174.628906 5.320312 177.027344 C 5.441406 177.863281 5.644531 178.578125 5.800781 179.289062 C 0.589844 188.25 2.9375 202.871094 3.84375 211.867188 C 5.402344 227.203125 10.652344 241.015625 18.765625 254.003906 C 22.03125 259.257812 27.558594 263.519531 31.972656 267.730469 C 38.417969 273.902344 43.558594 281.347656 49.871094 287.726562 C 62.484375 300.425781 75.011719 312.53125 88.421875 324.394531 C 89.898438 325.714844 91.640625 325.472656 92.921875 324.601562 C 101.109375 328.777344 112.292969 323.28125 120.128906 319.503906 C 136.394531 311.574219 152.550781 301.539062 170.097656 296.566406 C 170.570312 297.4375 171.367188 298.078125 172.515625 298.078125 C 184.453125 298.078125 198.734375 290.078125 207.890625 285.136719 C 228.410156 274.109375 250.40625 266.144531 270.929688 255.46875 C 289.78125 245.636719 309.566406 237.550781 328.417969 227.675781 C 341.3125 220.945312 363.261719 216.890625 371.496094 203.707031 C 371.980469 202.945312 372.050781 202.230469 371.980469 201.515625 C 372.257812 201.078125 372.449219 200.558594 372.535156 199.917969 C 373.371094 191.007812 373.441406 181.6875 372.050781 172.800781 C 369.828125 158.664062 372.65625 144.816406 374 130.710938 C 374.203125 128.605469 372.777344 127.527344 371.132812 127.371094"/><path fill="#F2F2F2" d="M 363.863281 164.402344 C 363.902344 176.386719 366.523438 187.8125 365.328125 199.917969 C 365.328125 199.964844 365.375 200.003906 365.375 200.085938 C 365.375 200.085938 365.328125 200.085938 365.328125 200.125 C 360.878906 207.253906 349.546875 210.074219 342.375 213.304688 C 333.0625 217.519531 323.921875 221.984375 314.925781 226.683594 C 298.9375 235.046875 281.753906 243.484375 265.039062 250.214844 C 247.144531 257.464844 228.882812 264.59375 212.21875 274.460938 C 203.824219 279.484375 190.257812 287.484375 179.046875 290.078125 C 179.203125 287 178.613281 283.503906 178.613281 280.550781 C 178.613281 268.964844 177.015625 257.417969 176.652344 245.832031 C 176.460938 238.542969 176.460938 231.34375 175.1875 224.210938 C 180.667969 221.863281 185.84375 218.875 191.851562 217.324219 C 199.410156 215.375 206.570312 211.273438 213.609375 208.003906 C 231.589844 199.601562 249.417969 190.679688 267.953125 183.480469 C 283.421875 177.460938 298.851562 170.367188 313.980469 163.566406 C 322.882812 159.582031 331.042969 153.84375 339.28125 148.628906 C 347.984375 143.097656 356.863281 138.921875 366.367188 135.09375 C 365.292969 144.851562 363.863281 154.570312 363.863281 164.402344"/><path fill="#4A5EA5" d="M 340.828125 107.820312 C 347.585938 114.902344 357.371094 120.484375 363.101562 128.765625 C 348.628906 134.78125 336.257812 141.984375 322.722656 150.539062 C 306.894531 160.539062 287.050781 167.464844 269.78125 174.921875 C 253.550781 181.964844 236.488281 187.691406 221.128906 196.492188 C 213.015625 201.1875 203.425781 205.183594 194.753906 208.753906 C 188.070312 211.550781 179.882812 215.171875 172.480469 217.722656 C 172.273438 217.566406 172.117188 217.359375 171.839844 217.238281 C 156.082031 209.359375 146.019531 191.238281 133.769531 178.976562 C 119.765625 164.957031 101.386719 156.835938 89.65625 140.15625 C 104.09375 134.730469 117.578125 127.722656 131.546875 121.078125 C 148.414062 113.074219 165.597656 106.152344 182.664062 98.621094 C 199.449219 91.214844 215.714844 82.292969 232.898438 75.71875 C 248.253906 69.789062 262.222656 61.75 277.375 55.539062 C 277.460938 55.539062 277.460938 55.492188 277.542969 55.457031 C 283.75 59.714844 290.265625 63.019531 296.277344 68.082031 C 304.148438 74.652344 311.949219 81.214844 319.664062 87.992188 C 326.980469 94.359375 334.105469 100.765625 340.828125 107.820312"/><path fill="#F2F2F2" d="M 128.714844 184.035156 C 139.585938 195.5 149.324219 210.992188 162.648438 220.109375 C 152.382812 224.371094 142.246094 229.1875 132.453125 234.285156 C 118.21875 241.730469 101.90625 252.597656 86.234375 256.144531 C 86.160156 256.144531 86.074219 256.074219 86.003906 256.074219 C 78.917969 255.1875 68.40625 240.699219 64.320312 235.640625 C 59.023438 229.101562 52.734375 223.65625 47.402344 217.167969 C 41.488281 209.953125 34.4375 204.179688 28.792969 196.613281 C 25.527344 192.316406 17.21875 186.226562 13.878906 180.609375 C 13.917969 180.609375 13.917969 180.574219 13.953125 180.574219 C 14.945312 179.652344 15.1875 178.613281 14.992188 177.621094 C 25.054688 168.382812 37.148438 162.851562 49.675781 157.753906 C 60.65625 153.289062 73.5 149.355469 84.964844 146.121094 C 85.046875 146.121094 85.085938 146.050781 85.15625 146 C 89.933594 152.210938 95.785156 157.828125 101.386719 163.128906 C 109.863281 171.09375 120.6875 175.585938 128.714844 184.035156"/><path fill="#B3B3B3" d="M 170.050781 263.589844 C 171.753906 271.3125 171.402344 279.679688 171.402344 287.523438 C 171.332031 288.320312 171.367188 289.15625 171.402344 289.957031 C 170.640625 289.433594 169.6875 289.242188 168.585938 289.554688 C 150.207031 294.6875 133.6875 305.242188 116.515625 313.292969 C 113.40625 314.757812 96.015625 324.601562 93.914062 313.960938 C 92.679688 307.628906 90.890625 301.539062 90.089844 295.125 C 89.339844 288.914062 85.207031 266.703125 90.769531 262.753906 C 91.011719 262.597656 91.128906 262.390625 91.289062 262.199219 C 104.335938 258.492188 117.179688 250.492188 129.042969 244.28125 C 141.414062 237.792969 154.015625 231.34375 166.992188 226.039062 C 167.390625 226.246094 167.824219 226.355469 168.34375 226.355469 C 170.207031 238.703125 167.390625 251.570312 170.050781 263.589844"/><path fill="#CCC" d="M 84.214844 303.972656 C 84.5625 305.957031 84.964844 309.03125 85.519531 312.09375 C 68.492188 296.285156 53.132812 279.640625 37.027344 262.683594 C 26.566406 251.691406 18.574219 242.441406 14.109375 227.273438 C 11.8125 219.394531 6.953125 198.925781 10.214844 187.132812 C 12.441406 189.496094 15.152344 191.675781 17.847656 194.785156 C 25.648438 203.742188 35.078125 212.980469 42.3125 222.214844 C 49.953125 231.972656 59.109375 241.449219 67.816406 250.25 C 73.0625 255.550781 76.136719 260.441406 82.496094 262.476562 C 79.957031 268.734375 81.699219 276.894531 82.167969 283.78125 C 82.617188 290.597656 83.089844 297.242188 84.214844 303.972656"/><path d="M 85.519531 312.09375 C 84.964844 309.03125 84.5625 305.957031 84.214844 303.972656 C 83.089844 297.242188 82.617188 290.597656 82.167969 283.78125 C 81.699219 276.894531 79.957031 268.734375 82.496094 262.476562 C 76.136719 260.441406 73.0625 255.550781 67.816406 250.25 C 59.109375 241.449219 49.953125 231.972656 42.3125 222.214844 C 35.078125 212.980469 25.648438 203.742188 17.847656 194.785156 C 15.152344 191.675781 12.441406 189.496094 10.214844 187.132812 C 6.953125 198.925781 11.8125 219.394531 14.109375 227.273438 C 18.574219 242.441406 26.566406 251.691406 37.027344 262.683594 C 53.132812 279.640625 68.492188 296.285156 85.519531 312.09375 Z M 162.648438 220.109375 C 149.324219 210.992188 139.585938 195.5 128.714844 184.035156 C 120.6875 175.585938 109.863281 171.09375 101.386719 163.128906 C 95.785156 157.828125 89.933594 152.210938 85.15625 146 C 85.085938 146.050781 85.046875 146.121094 84.964844 146.121094 C 73.5 149.355469 60.65625 153.289062 49.675781 157.753906 C 37.148438 162.851562 25.054688 168.382812 14.992188 177.621094 C 15.1875 178.613281 14.945312 179.652344 13.953125 180.574219 C 13.917969 180.574219 13.917969 180.609375 13.878906 180.609375 C 17.21875 186.226562 25.527344 192.316406 28.792969 196.613281 C 34.4375 204.179688 41.488281 209.953125 47.402344 217.167969 C 52.734375 223.65625 59.023438 229.101562 64.320312 235.640625 C 68.40625 240.699219 78.917969 255.1875 86.003906 256.074219 C 86.074219 256.074219 86.160156 256.144531 86.234375 256.144531 C 101.90625 252.597656 118.21875 241.730469 132.453125 234.285156 C 142.246094 229.1875 152.382812 224.371094 162.648438 220.109375 Z M 171.402344 287.523438 C 171.402344 279.679688 171.753906 271.3125 170.050781 263.589844 C 167.390625 251.570312 170.207031 238.703125 168.34375 226.355469 C 167.824219 226.355469 167.390625 226.246094 166.992188 226.039062 C 154.015625 231.34375 141.414062 237.792969 129.042969 244.28125 C 117.179688 250.492188 104.335938 258.492188 91.289062 262.199219 C 91.128906 262.390625 91.011719 262.597656 90.769531 262.753906 C 85.207031 266.703125 89.339844 288.914062 90.089844 295.125 C 90.890625 301.539062 92.679688 307.628906 93.914062 313.960938 C 96.015625 324.601562 113.40625 314.757812 116.515625 313.292969 C 133.6875 305.242188 150.207031 294.6875 168.585938 289.554688 C 169.6875 289.242188 170.640625 289.433594 171.402344 289.957031 C 171.367188 289.15625 171.332031 288.320312 171.402344 287.523438 Z M 363.101562 128.765625 C 357.371094 120.484375 347.585938 114.902344 340.828125 107.820312 C 334.105469 100.765625 326.980469 94.359375 319.664062 87.992188 C 311.949219 81.214844 304.148438 74.652344 296.277344 68.082031 C 290.265625 63.019531 283.75 59.714844 277.542969 55.457031 C 277.460938 55.492188 277.460938 55.539062 277.375 55.539062 C 262.222656 61.75 248.253906 69.789062 232.898438 75.71875 C 215.714844 82.292969 199.449219 91.214844 182.664062 98.621094 C 165.597656 106.152344 148.414062 113.074219 131.546875 121.078125 C 117.578125 127.722656 104.09375 134.730469 89.65625 140.15625 C 101.386719 156.835938 119.765625 164.957031 133.769531 178.976562 C 146.019531 191.238281 156.082031 209.359375 171.839844 217.238281 C 172.117188 217.359375 172.273438 217.566406 172.480469 217.722656 C 179.882812 215.171875 188.070312 211.550781 194.753906 208.753906 C 203.425781 205.183594 213.015625 201.1875 221.128906 196.492188 C 236.488281 187.691406 253.550781 181.964844 269.78125 174.921875 C 287.050781 167.464844 306.894531 160.539062 322.722656 150.539062 C 336.257812 141.984375 348.628906 134.78125 363.101562 128.765625 Z M 365.328125 199.917969 C 366.523438 187.8125 363.902344 176.386719 363.863281 164.402344 C 363.863281 154.570312 365.292969 144.851562 366.367188 135.09375 C 356.863281 138.921875 347.984375 143.097656 339.28125 148.628906 C 331.042969 153.84375 322.882812 159.582031 313.980469 163.566406 C 298.851562 170.367188 283.421875 177.460938 267.953125 183.480469 C 249.417969 190.679688 231.589844 199.601562 213.609375 208.003906 C 206.570312 211.273438 199.410156 215.375 191.851562 217.324219 C 185.84375 218.875 180.667969 221.863281 175.1875 224.210938 C 176.460938 231.34375 176.460938 238.542969 176.652344 245.832031 C 177.015625 257.417969 178.613281 268.964844 178.613281 280.550781 C 178.613281 283.503906 179.203125 287 179.046875 290.078125 C 190.257812 287.484375 203.824219 279.484375 212.21875 274.460938 C 228.882812 264.59375 247.144531 257.464844 265.039062 250.214844 C 281.753906 243.484375 298.9375 235.046875 314.925781 226.683594 C 323.921875 221.984375 333.0625 217.519531 342.375 213.304688 C 349.546875 210.074219 360.878906 207.253906 365.328125 200.125 C 365.328125 200.085938 365.375 200.085938 365.375 200.085938 C 365.375 200.003906 365.328125 199.964844 365.328125 199.917969 Z M 371.132812 127.371094 C 372.777344 127.527344 374.203125 128.605469 374 130.710938 C 372.65625 144.816406 369.828125 158.664062 372.050781 172.800781 C 373.441406 181.6875 373.371094 191.007812 372.535156 199.917969 C 372.449219 200.558594 372.257812 201.078125 371.980469 201.515625 C 372.050781 202.230469 371.980469 202.945312 371.496094 203.707031 C 363.261719 216.890625 341.3125 220.945312 328.417969 227.675781 C 309.566406 237.550781 289.78125 245.636719 270.929688 255.46875 C 250.40625 266.144531 228.410156 274.109375 207.890625 285.136719 C 198.734375 290.078125 184.453125 298.078125 172.515625 298.078125 C 171.367188 298.078125 170.570312 297.4375 170.097656 296.566406 C 152.550781 301.539062 136.394531 311.574219 120.128906 319.503906 C 112.292969 323.28125 101.109375 328.777344 92.921875 324.601562 C 91.640625 325.472656 89.898438 325.714844 88.421875 324.394531 C 75.011719 312.53125 62.484375 300.425781 49.871094 287.726562 C 43.558594 281.347656 38.417969 273.902344 31.972656 267.730469 C 27.558594 263.519531 22.03125 259.257812 18.765625 254.003906 C 10.652344 241.015625 5.402344 227.203125 3.84375 211.867188 C 2.9375 202.871094 0.589844 188.25 5.800781 179.289062 C 5.644531 178.578125 5.441406 177.863281 5.320312 177.027344 C 5.039062 174.628906 6.878906 173.515625 8.777344 173.636719 C 8.824219 173.601562 8.824219 173.566406 8.863281 173.480469 C 27.59375 155.515625 55.25 147.078125 79.871094 140.117188 C 79.230469 138.316406 79.75 136.015625 82.0625 135.253906 C 100.441406 129.113281 116.984375 119.648438 134.53125 111.839844 C 151.714844 104.152344 171.5625 98.101562 187.632812 88.308594 C 200.765625 80.308594 216.597656 74.328125 231 68.796875 C 246.066406 62.984375 259.875 55.09375 274.714844 48.96875 C 275.632812 47.492188 277.410156 46.65625 279.25 48.011719 C 286.480469 53.300781 294.246094 57.210938 301.367188 62.984375 C 310.667969 70.585938 319.785156 78.429688 328.699219 86.515625 C 336.8125 93.839844 344.441406 101.769531 352.679688 108.9375 C 358.882812 114.261719 366.125 119.683594 370.347656 126.816406 C 370.660156 126.972656 370.902344 127.128906 371.132812 127.371094"/><path fill="#4A5EA5" d="M 187.34375 230.519531 C 186.605469 232.128906 186.691406 233.496094 186.691406 235.226562 C 186.675781 236.378906 186.421875 237.515625 186.398438 238.679688 C 186.375 241.109375 187.320312 244.996094 190.714844 243.871094 C 194.34375 242.648438 192.796875 236.886719 189.132812 238.109375 C 189.085938 238.121094 189.035156 238.132812 189 238.144531 C 189.761719 238.253906 190.535156 238.351562 191.296875 238.449219 C 192.554688 239.042969 192.445312 240.882812 192.375 239.40625 C 192.347656 238.847656 192.375 238.289062 192.386719 237.734375 C 192.410156 237.128906 192.554688 236.523438 192.628906 235.882812 C 192.675781 235.410156 192.398438 233.75 192.496094 233.535156 C 194.089844 230.058594 188.949219 227.019531 187.34375 230.519531"/><path fill="#4A5EA5" d="M 195.25 231.234375 C 194.515625 234.03125 193.292969 239.015625 195.652344 241.378906 C 198.300781 244.015625 202 242.273438 203.246094 239.296875 C 203.863281 237.78125 202.578125 236.003906 201.152344 235.617188 C 199.4375 235.144531 198.105469 236.195312 197.488281 237.699219 C 197.695312 237.226562 198.019531 236.875 198.46875 236.65625 C 198.976562 236.789062 199.472656 236.933594 199.980469 237.066406 C 199.253906 236.667969 199.386719 237.007812 200.367188 238.097656 C 200.304688 237.503906 200.378906 236.863281 200.402344 236.257812 C 200.464844 235.082031 200.707031 233.957031 200.996094 232.820312 C 201.988281 229.089844 196.230469 227.503906 195.25 231.234375"/><path fill="#4A5EA5" d="M 205.6875 228.59375 C 206.484375 231.015625 207.804688 233.253906 208.179688 235.808594 C 208.410156 237.417969 210.429688 238.277344 211.84375 237.890625 C 213.558594 237.417969 214.164062 235.832031 213.933594 234.222656 C 213.558594 231.65625 212.242188 229.429688 211.445312 226.996094 C 210.246094 223.351562 204.492188 224.914062 205.6875 228.59375"/><path fill="#4A5EA5" d="M 214.78125 222.070312 C 214.925781 223.945312 215.628906 225.628906 216.015625 227.445312 C 216.160156 228.183594 216.378906 228.886719 216.644531 229.585938 C 217.03125 230.566406 217.117188 231.558594 217.382812 232.566406 C 218.347656 236.292969 224.105469 234.707031 223.136719 230.980469 C 222.726562 229.453125 222.304688 227.953125 221.890625 226.425781 C 221.53125 225.070312 220.863281 223.460938 220.753906 222.070312 C 220.464844 218.257812 214.492188 218.234375 214.78125 222.070312"/><path fill="#4A5EA5" d="M 226.574219 219.625 C 227.238281 222.347656 226.402344 225.992188 228.542969 228.109375 C 230.417969 229.960938 233.101562 228.886719 234.941406 227.636719 C 238.097656 225.496094 235.121094 220.316406 231.929688 222.480469 C 231.617188 222.6875 231.3125 222.894531 230.988281 223.074219 C 232.0625 222.433594 233.066406 225.300781 233.054688 223.292969 C 233.054688 221.539062 232.738281 219.746094 232.328125 218.039062 C 231.410156 214.296875 225.664062 215.882812 226.574219 219.625"/><path fill="#4A5EA5" d="M 236.671875 214.601562 C 236.683594 217.601562 237.613281 221.1875 240.019531 223.183594 C 242.957031 225.617188 247.214844 221.417969 244.242188 218.957031 C 242.996094 217.929688 242.632812 216.136719 242.632812 214.601562 C 242.609375 210.75 236.644531 210.75 236.671875 214.601562"/><path fill="#4A5EA5" d="M 244.722656 207.6875 C 245.109375 209.613281 244.894531 211.648438 244.871094 213.609375 C 244.84375 215.800781 245.378906 218.148438 245.617188 220.328125 C 245.910156 223.0625 249.621094 224.683594 251.167969 221.839844 C 251.8125 220.679688 251.835938 220.933594 253.320312 220.703125 C 254.542969 220.519531 255.546875 219.625 256.140625 218.597656 C 258.0625 215.253906 252.910156 212.253906 251 215.582031 C 251.472656 214.746094 252.136719 214.902344 250.976562 215.023438 C 250.347656 215.085938 249.632812 215.15625 249.078125 215.507812 C 247.710938 216.378906 246.804688 217.398438 246.019531 218.824219 C 247.878906 219.320312 249.730469 219.832031 251.582031 220.328125 C 251.300781 217.832031 250.820312 215.265625 250.84375 212.761719 C 250.867188 210.496094 250.929688 208.332031 250.480469 206.089844 C 249.71875 202.3125 243.972656 203.925781 244.722656 207.6875"/><path fill="#4A5EA5" d="M 257.53125 211.210938 C 257.988281 211.429688 257.988281 211.40625 257.53125 211.125 C 257.617188 211.261719 257.675781 211.902344 257.710938 212.082031 C 257.855469 212.859375 257.90625 213.644531 258.148438 214.40625 C 259.34375 218.050781 265.101562 216.488281 263.902344 212.808594 C 263.105469 210.363281 263.394531 207.265625 260.542969 206.054688 C 259.042969 205.414062 257.359375 205.59375 256.464844 207.121094 C 255.714844 208.390625 256.042969 210.570312 257.53125 211.210938"/><path fill="#4A5EA5" d="M 267.242188 201.660156 C 267.253906 203.535156 267.324219 205.378906 267.847656 207.179688 C 268.910156 210.886719 274.667969 209.3125 273.601562 205.59375 C 273.226562 204.289062 273.214844 203.027344 273.214844 201.660156 C 273.203125 197.8125 267.242188 197.8125 267.242188 201.660156"/><path fill="#4A5EA5" d="M 188.683594 258.386719 C 188.683594 258.386719 188.710938 261.859375 188.671875 263.589844 C 188.625 265.175781 188.503906 266.945312 189.339844 268.371094 C 190.28125 269.980469 192.589844 270.902344 194.285156 269.898438 C 195.878906 268.953125 195.890625 267.488281 197.003906 266.242188 C 199.542969 263.371094 195.347656 259.136719 192.785156 262.015625 C 192.363281 262.5 191.972656 262.996094 191.597656 263.53125 C 191.359375 263.917969 191.152344 264.328125 191.007812 264.777344 C 190.621094 265.527344 190.714844 265.515625 191.273438 264.742188 C 191.769531 264.605469 192.265625 264.472656 192.773438 264.339844 C 192.628906 264.316406 192.496094 264.304688 192.363281 264.28125 C 193.050781 264.570312 193.765625 264.863281 194.464844 265.152344 C 194.851562 265.503906 194.585938 265.671875 194.585938 264.703125 C 194.585938 264.183594 194.636719 263.652344 194.648438 263.128906 C 194.683594 261.558594 194.648438 262.367188 194.648438 258.386719 C 194.648438 254.402344 188.683594 254.402344 188.683594 258.386719 C 188.683594 258.386719 188.683594 254.402344 188.683594 258.386719"/><path fill="#4A5EA5" d="M 199.617188 254.402344 C 199.617188 254.402344 199.121094 260.492188 199.796875 262.960938 C 200.558594 265.746094 204.105469 266.796875 206.339844 265.273438 C 209.496094 263.117188 206.523438 258.035156 203.328125 260.214844 C 203.96875 260.457031 204.613281 260.757812 205.253906 261 C 205.386719 261.507812 205.519531 261.640625 205.652344 262.148438 C 205.347656 259.753906 205.589844 258.386719 205.589844 254.402344 C 205.589844 250.421875 199.617188 250.421875 199.617188 254.402344 C 199.617188 254.402344 199.617188 250.421875 199.617188 254.402344"/><path fill="#4A5EA5" d="M 214.335938 253.070312 C 216.921875 252.394531 219.582031 250.820312 221.757812 249.292969 C 224.878906 247.089844 221.90625 241.910156 218.75 244.125 C 217.007812 245.359375 214.816406 246.765625 212.75 247.308594 C 209.027344 248.289062 210.609375 254.050781 214.335938 253.070312"/><path fill="#4A5EA5" d="M 215.035156 260.152344 C 216.835938 260.214844 218.09375 259.148438 219.59375 258.359375 C 221.214844 257.5 222.96875 257.054688 224.492188 256.011719 C 227.648438 253.847656 224.675781 248.664062 221.480469 250.855469 C 220.210938 251.726562 218.84375 252.125 217.453125 252.769531 C 216.28125 253.300781 215.265625 254.101562 214.09375 254.597656 C 214.589844 254.464844 215.085938 254.328125 215.59375 254.195312 C 215.410156 254.183594 215.21875 254.183594 215.035156 254.171875 C 211.191406 254.039062 211.203125 260.019531 215.035156 260.152344"/><path fill="#4A5EA5" d="M 229.207031 242.976562 C 229.171875 244.972656 228.953125 246.957031 228.953125 248.941406 C 228.953125 250.675781 228.738281 252.574219 229.316406 254.222656 C 229.984375 256.195312 231.871094 256.8125 233.695312 256.011719 C 235.726562 255.105469 236.585938 252.296875 237.503906 250.457031 C 239.222656 247.019531 234.070312 243.992188 232.339844 247.441406 C 232.039062 248.070312 231.105469 250.660156 230.683594 250.855469 C 232.148438 251.449219 233.609375 252.042969 235.0625 252.636719 C 234.625 251.363281 234.929688 249.558594 234.929688 248.203125 C 234.929688 246.460938 235.144531 244.71875 235.171875 242.976562 C 235.242188 239.125 229.269531 239.125 229.207031 242.976562"/><path fill="#4A5EA5" d="M 240.09375 243.617188 C 239.535156 243.375 239.136719 243.011719 238.882812 242.515625 C 238.96875 242.855469 238.980469 242.9375 238.929688 242.757812 C 238.992188 243.433594 238.957031 244.125 238.945312 244.792969 C 238.894531 246.0625 238.835938 247.238281 239.003906 248.496094 C 239.234375 250.117188 241.265625 250.976562 242.679688 250.589844 C 244.398438 250.117188 244.988281 248.519531 244.761719 246.910156 C 244.882812 247.828125 244.832031 246.859375 244.832031 246.703125 C 244.832031 246.339844 244.855469 245.976562 244.871094 245.613281 C 244.917969 244.65625 244.953125 243.714844 244.894531 242.757812 C 244.796875 240.773438 243.988281 238.207031 241.6875 237.855469 C 240.082031 237.613281 238.484375 238.230469 238.011719 239.9375 C 237.625 241.367188 238.484375 243.375 240.09375 243.617188"/><path fill="#4A5EA5" d="M 247.832031 239.585938 C 247.6875 239.320312 247.664062 239.285156 247.785156 239.441406 C 247.953125 239.828125 248.027344 240.265625 248.121094 240.675781 C 248.375 241.753906 248.351562 242.867188 248.351562 243.96875 C 248.351562 247.816406 254.324219 247.816406 254.3125 243.96875 C 254.3125 240.6875 254.121094 236.222656 250.855469 234.429688 C 247.480469 232.566406 244.46875 237.722656 247.832031 239.585938"/><path fill="#4A5EA5" d="M 256.308594 231.523438 C 256.476562 234.527344 257.167969 237.5625 257.652344 240.53125 C 258.28125 244.332031 264.035156 242.710938 263.40625 238.945312 C 263.007812 236.511719 262.417969 233.992188 262.269531 231.523438 C 262.042969 227.699219 256.078125 227.675781 256.308594 231.523438"/><path fill="#4A5EA5" d="M 346.304688 160.601562 C 347.71875 171.640625 349.460938 182.570312 350.042969 193.695312 C 350.234375 197.53125 356.199219 197.546875 356.003906 193.695312 C 355.421875 182.570312 353.683594 171.640625 352.28125 160.601562 C 351.796875 156.835938 345.820312 156.789062 346.304688 160.601562"/><path fill="#4A5EA5" d="M 350.539062 199.675781 C 350.320312 197.738281 350.042969 196.734375 349.257812 194.953125 C 347.539062 191.058594 347.210938 187.21875 346.691406 182.996094 C 346.390625 180.511719 346.691406 177.996094 346.328125 175.515625 C 345.738281 171.542969 344.273438 167.863281 343.8125 163.832031 C 343.390625 160.054688 337.417969 160.007812 337.851562 163.832031 C 338.589844 170.367188 340.355469 176.386719 340.730469 182.996094 C 340.898438 186.03125 341.226562 189.433594 341.832031 192.4375 C 342.339844 195.003906 344.285156 197.132812 344.5625 199.675781 C 344.976562 203.464844 350.949219 203.5 350.539062 199.675781"/><path fill="#FFF" d="M 121.097656 144.5625 C 122.234375 144.402344 123.394531 144.429688 124.53125 144.414062 C 128.378906 144.414062 128.378906 138.4375 124.53125 138.449219 C 122.839844 138.449219 121.195312 138.570312 119.511719 138.800781 C 117.90625 139.027344 117.035156 141.0625 117.433594 142.480469 C 117.90625 144.199219 119.488281 144.792969 121.097656 144.5625"/><path fill="#FFF" d="M 120.300781 150.878906 C 121.726562 150.917969 123.140625 150.867188 124.53125 150.867188 C 126.1875 150.867188 128.605469 150.867188 128.605469 150.867188 C 132.585938 150.867188 132.585938 146.898438 128.605469 146.898438 C 128.605469 146.898438 126.625 146.898438 125.183594 146.898438 C 123.5625 146.898438 121.945312 145.699219 120.300781 145.652344 C 116.453125 145.554688 116.464844 150.78125 120.300781 150.878906"/><path fill="#FFF" d="M 127.023438 161.847656 C 127.09375 161.847656 127.191406 161.847656 127.265625 161.847656 C 131.109375 161.847656 131.109375 155.867188 127.265625 155.867188 C 127.191406 155.867188 127.09375 155.867188 127.023438 155.867188 C 123.164062 155.867188 123.164062 161.847656 127.023438 161.847656"/><path fill="#FFF" d="M 318.40625 121.175781 C 320.523438 121.828125 322.941406 121.523438 325.117188 121.523438 C 327.101562 121.523438 330.730469 121.175781 332.375 122.359375 C 335.496094 124.636719 338.46875 119.441406 335.386719 117.203125 C 333.390625 115.75 330.464844 115.835938 328.09375 115.628906 C 325.554688 115.398438 322.421875 116.164062 320.003906 115.410156 C 316.316406 114.261719 314.753906 120.023438 318.40625 121.175781"/><path fill="#FFF" d="M 319.542969 131.234375 C 319.542969 131.234375 323.4375 131.574219 325.046875 132.117188 C 326.992188 132.78125 329.929688 132.902344 331.976562 132.976562 C 335.820312 133.097656 335.191406 127.128906 331.359375 126.996094 C 327.5 126.875 323.523438 125.253906 319.542969 125.253906 C 315.566406 125.253906 315.566406 131.234375 319.542969 131.234375 C 319.542969 131.234375 315.566406 131.234375 319.542969 131.234375"/><path fill="#FFF" d="M 321.199219 142.429688 C 322.480469 142.429688 323.714844 142.320312 324.972656 142.078125 C 328.746094 141.339844 327.136719 135.589844 323.390625 136.316406 C 322.652344 136.449219 321.9375 136.449219 321.199219 136.460938 C 317.34375 136.476562 317.34375 142.453125 321.199219 142.429688"/><path fill="#FFF" d="M 325.179688 113.316406 C 325.503906 113.316406 325.84375 113.316406 326.171875 113.316406 C 330.015625 113.316406 330.015625 107.339844 326.171875 107.339844 C 325.84375 107.339844 325.503906 107.339844 325.179688 107.339844 C 321.332031 107.339844 321.332031 113.316406 325.179688 113.316406"/><path fill="#FFF" d="M 247.941406 90.910156 C 247.941406 90.910156 251.691406 90.898438 253.832031 90.933594 C 256.042969 90.972656 257.832031 91.917969 260.007812 92.304688 C 263.769531 92.957031 265.246094 87.207031 261.460938 86.542969 C 259.007812 86.117188 257.214844 85.210938 254.714844 84.992188 C 252.332031 84.785156 247.941406 84.945312 247.941406 84.945312 C 243.960938 84.945312 243.960938 90.910156 247.941406 90.910156 C 247.941406 90.910156 243.960938 90.910156 247.941406 90.910156"/><path fill="#FFF" d="M 252.574219 82.207031 C 255.5 82.257812 258.160156 83.441406 260.976562 84.085938 C 264.726562 84.945312 266.320312 79.195312 262.5625 78.335938 C 259.199219 77.558594 256.078125 76.289062 252.574219 76.226562 C 248.726562 76.167969 248.738281 82.148438 252.574219 82.207031"/><path fill="#FFF" d="M 260.289062 75.730469 C 261.027344 75.730469 261.773438 75.730469 262.511719 75.730469 C 266.371094 75.730469 266.371094 69.765625 262.511719 69.765625 C 261.773438 69.765625 261.027344 69.765625 260.289062 69.765625 C 256.441406 69.765625 256.441406 75.730469 260.289062 75.730469"/><path fill="#FFF" d="M 218.214844 170.453125 C 221.324219 171.589844 224.660156 172.039062 227.964844 172.050781 C 231.808594 172.050781 231.808594 166.082031 227.964844 166.070312 C 225.15625 166.070312 222.4375 165.660156 219.800781 164.691406 C 216.183594 163.347656 214.636719 169.121094 218.214844 170.453125"/><path fill="#FFF" d="M 213.789062 179.011719 C 216.546875 179.085938 219.257812 179.714844 222 180.015625 C 223.609375 180.1875 224.976562 178.515625 224.976562 177.027344 C 224.976562 175.273438 223.609375 174.207031 222 174.035156 C 219.257812 173.746094 216.558594 173.105469 213.789062 173.042969 C 209.933594 172.949219 209.945312 178.925781 213.789062 179.011719"/><path fill="#FFF" d="M 206.582031 190.222656 C 207.914062 190.257812 209.230469 190.425781 210.5625 190.464844 C 214.40625 190.574219 214.394531 184.605469 210.5625 184.496094 C 209.230469 184.460938 207.914062 184.277344 206.582031 184.242188 C 202.726562 184.132812 202.738281 190.101562 206.582031 190.222656"/><path fill="#FFF" d="M 225.421875 158.25 C 226.269531 158.433594 227.152344 158.578125 227.949219 158.941406 C 231.421875 160.539062 234.445312 155.394531 230.960938 153.785156 C 229.667969 153.191406 228.398438 152.78125 227.019531 152.488281 C 223.257812 151.714844 221.664062 157.464844 225.421875 158.25"/><path fill="#999" d="M 85 241.730469 C 88.144531 241.730469 92.957031 241.730469 92.957031 241.730469 C 96.933594 241.730469 96.933594 233.761719 92.957031 233.761719 C 92.957031 233.761719 88.144531 233.761719 85 233.761719 C 81.152344 233.761719 81.152344 241.730469 85 241.730469"/><path fill="#999" d="M 84.84375 230.785156 C 84.84375 230.785156 91.046875 230.738281 94.082031 231.171875 C 96.851562 231.574219 99.957031 233.132812 102.570312 234.164062 C 106.164062 235.554688 107.722656 229.78125 104.179688 228.402344 C 101.121094 227.214844 97.757812 225.714844 94.515625 225.253906 C 91.335938 224.792969 88.820312 224.804688 84.84375 224.804688 C 80.863281 224.804688 80.863281 230.773438 84.84375 230.785156 C 84.84375 230.785156 80.863281 230.785156 84.84375 230.785156"/><path fill="#999" d="M 93.453125 220.328125 C 97.238281 220.460938 100.683594 222.578125 103.875 224.394531 C 107.238281 226.308594 110.238281 221.148438 106.898438 219.238281 C 102.714844 216.863281 98.363281 214.527344 93.453125 214.359375 C 89.605469 214.214844 89.621094 220.195312 93.453125 220.328125"/><path fill="#999" d="M 98.929688 213.355469 C 99.921875 213.367188 100.695312 213.367188 101.617188 213.753906 C 103.113281 214.382812 104.894531 213.089844 105.28125 211.660156 C 105.75 209.941406 104.699219 208.621094 103.199219 207.992188 C 101.84375 207.421875 100.371094 207.386719 98.929688 207.386719 C 95.074219 207.375 95.074219 213.34375 98.929688 213.355469"/><path fill="#999" d="M 69.679688 280.078125 C 70.308594 278.699219 71.84375 278.515625 73.074219 277.65625 C 76.21875 275.488281 73.246094 270.308594 70.078125 272.5 C 67.898438 274 65.722656 274.425781 64.527344 277.0625 C 63.847656 278.539062 64.089844 280.257812 65.589844 281.144531 C 66.882812 281.90625 69 281.554688 69.679688 280.078125"/><path fill="#999" d="M 59.652344 272.183594 C 61.308594 271.203125 63.378906 270.71875 65.238281 270.308594 C 67.621094 269.789062 69.90625 268.757812 72.085938 267.707031 C 75.554688 266.023438 72.519531 260.867188 69.074219 262.550781 C 65.105469 264.472656 60.449219 264.777344 56.640625 267.027344 C 53.328125 268.976562 56.339844 274.144531 59.652344 272.183594"/><path fill="#999" d="M 57.171875 262.730469 C 59.3125 261.484375 61.492188 260.574219 63.921875 260.042969 C 67.671875 259.21875 66.085938 253.457031 62.324219 254.28125 C 59.433594 254.910156 56.714844 256.085938 54.164062 257.574219 C 50.835938 259.5 53.835938 264.667969 57.171875 262.730469"/><path fill="#999" d="M 53.074219 252.972656 C 53.109375 252.863281 53.160156 252.746094 53.195312 252.625 C 52.734375 253.226562 52.289062 253.820312 51.828125 254.414062 C 51.71875 254.464844 51.597656 254.511719 51.488281 254.570312 C 53.097656 254.34375 53.957031 252.308594 53.570312 250.890625 C 53.097656 249.171875 51.515625 248.578125 49.894531 248.808594 C 48.515625 249.003906 47.753906 250.203125 47.316406 251.386719 C 45.988281 255.007812 51.757812 256.558594 53.074219 252.972656"/><path fill="#999" d="M 33.773438 180.101562 C 36.3125 181.445312 38.609375 183.1875 41.441406 183.890625 C 45.191406 184.796875 46.761719 179.035156 43.035156 178.128906 C 40.726562 177.558594 38.851562 176.035156 36.785156 174.945312 C 33.386719 173.152344 30.363281 178.308594 33.773438 180.101562"/><path fill="#999" d="M 40.242188 173.042969 C 41.804688 173.042969 43.265625 173.007812 44.5625 173.929688 C 45.613281 174.667969 46.167969 175.71875 47.089844 176.652344 C 49.796875 179.386719 54.015625 175.164062 51.308594 172.425781 C 49.976562 171.082031 49.058594 169.316406 47.222656 168.46875 C 44.933594 167.414062 42.757812 167.078125 40.242188 167.0625 C 36.398438 167.0625 36.398438 173.03125 40.242188 173.042969"/><path fill="#999" d="M 49.675781 166.664062 C 50.292969 167.089844 51.101562 167.257812 51.671875 167.65625 C 54.828125 169.886719 57.800781 164.703125 54.683594 162.5 C 54.078125 162.066406 53.269531 161.90625 52.699219 161.507812 C 49.542969 159.28125 46.566406 164.460938 49.675781 166.664062"/></svg>