<svg xmlns="http://www.w3.org/2000/svg" xmlns:xlink="http://www.w3.org/1999/xlink" width="375" viewBox="0 0 375 375" height="375" version="1.0"><defs><clipPath id="a"><path d="M 0.0507812 7.5 L 375 7.5 L 375 367.5 L 0.0507812 367.5 Z M 0.0507812 7.5"/></clipPath><clipPath id="b"><path d="M 326.066406 367.429688 C 314.121094 367.425781 303.132812 361.332031 296.671875 351.125 L 288.097656 337.519531 C 263 301.0625 231.699219 266.625 192.675781 232.558594 C 190.582031 234.386719 188.449219 236.242188 186.273438 238.136719 C 150.851562 268.949219 110.71875 303.855469 95.019531 341.21875 L 94.835938 341.644531 C 94.644531 342.175781 94.46875 342.644531 94.300781 343.074219 L 93.714844 344.609375 C 88.566406 358.042969 76.085938 366.71875 61.914062 366.71875 C 50.660156 366.71875 39.9375 361.398438 33.230469 352.480469 C 26.777344 343.902344 24.808594 332.984375 27.820312 322.527344 C 42.761719 268.679688 88.222656 223.21875 128.328125 183.105469 C 128.328125 183.105469 128.519531 182.917969 128.671875 182.761719 C 89.695312 221.792969 42.214844 270.660156 27.820312 322.527344 C 26.5 327.117188 26.136719 331.792969 26.691406 336.324219 C 26.917969 334.449219 27.289062 332.578125 27.820312 330.722656 C 42.761719 276.875 128.863281 190.769531 128.863281 190.769531 C 128.863281 190.769531 128.121094 187.449219 128.863281 182.570312 C 92.144531 156.351562 58.253906 135.253906 25.675781 118.324219 L 25.292969 118.125 C 5.648438 107.867188 -3.710938 87.433594 1.523438 66.097656 C 6.894531 44.210938 26.257812 28.320312 47.574219 28.320312 C 54.71875 28.320312 61.675781 30 68.320312 33.316406 C 61.675781 30 54.71875 28.324219 47.574219 28.324219 C 26.257812 28.324219 6.894531 44.210938 1.523438 66.097656 C 0.207031 71.464844 -0.183594 76.773438 0.277344 81.878906 C 0.496094 79.371094 0.898438 76.839844 1.523438 74.292969 C 6.894531 52.402344 26.257812 36.519531 47.574219 36.519531 C 56.003906 36.519531 64.183594 38.855469 71.878906 43.460938 C 111.195312 67.0625 151.003906 95.644531 190.402344 128.558594 C 222.972656 96.371094 257.480469 63.753906 295.519531 29.191406 C 304.289062 21.226562 316.480469 15.660156 328.328125 15.660156 C 337.363281 15.660156 351.546875 20.300781 361.363281 30.945312 C 371.179688 41.59375 374.046875 52.378906 374.71875 60.058594 C 374.832031 58.679688 374.9375 56.816406 374.875 54.570312 C 374.9375 56.847656 374.828125 58.738281 374.710938 60.117188 C 373.625 73.183594 367.238281 85.285156 357.195312 93.324219 L 356.835938 93.605469 C 319.929688 122.929688 286.171875 150.792969 254.113281 178.390625 C 252.660156 179.636719 326.1875 263.457031 349.429688 307.484375 L 349.890625 308.296875 L 358.023438 323.1875 C 360.273438 327.3125 361.664062 331.691406 362.207031 336.109375 C 363.042969 329.066406 361.6875 321.78125 358.109375 315.148438 C 364.0625 326.171875 363.898438 339 357.660156 349.511719 C 351.105469 360.5625 339 367.429688 326.066406 367.429688 M 358.105469 315.144531 C 358.101562 315.132812 358.09375 315.121094 358.089844 315.113281 C 358.09375 315.121094 358.101562 315.132812 358.105469 315.144531 M 358.082031 315.101562 C 358.078125 315.089844 358.074219 315.085938 358.070312 315.078125 C 358.074219 315.085938 358.078125 315.089844 358.082031 315.101562 M 358.0625 315.0625 C 358.058594 315.054688 358.054688 315.046875 358.050781 315.039062 C 358.054688 315.046875 358.058594 315.058594 358.0625 315.0625 M 358.042969 315.027344 C 358.035156 315.015625 358.027344 315 358.023438 314.992188 C 358.027344 315 358.035156 315.015625 358.042969 315.027344 M 190.402344 120.363281 C 173.0625 105.875 155.636719 92.230469 138.214844 79.476562 C 155.636719 92.230469 173.058594 105.875 190.402344 120.363281 C 222.972656 88.175781 257.480469 55.558594 295.519531 20.996094 C 304.289062 13.03125 316.480469 7.464844 328.328125 7.464844 C 316.480469 7.464844 304.289062 13.03125 295.519531 20.996094 C 257.480469 55.558594 222.972656 88.175781 190.402344 120.363281 M 374.875 54.558594 C 374.875 54.554688 374.875 54.554688 374.875 54.554688 C 374.875 54.554688 374.875 54.554688 374.875 54.558594 M 361.40625 22.796875 C 361.40625 22.796875 361.402344 22.796875 361.402344 22.796875 C 361.402344 22.796875 361.40625 22.796875 361.40625 22.796875"/></clipPath><clipPath id="c"><path d="M 326.066406 367.429688 C 314.121094 367.425781 303.132812 361.332031 296.671875 351.125 L 288.097656 337.519531 C 263 301.0625 231.699219 266.625 192.675781 232.558594 C 190.582031 234.386719 188.449219 236.242188 186.273438 238.136719 C 150.851562 268.949219 110.71875 303.855469 95.019531 341.21875 L 94.835938 341.644531 C 94.644531 342.175781 94.46875 342.644531 94.300781 343.074219 L 93.714844 344.609375 C 88.566406 358.042969 76.085938 366.71875 61.914062 366.71875 C 50.660156 366.71875 39.9375 361.398438 33.230469 352.480469 C 26.777344 343.902344 24.808594 332.984375 27.820312 322.527344 C 42.761719 268.679688 88.222656 223.21875 128.328125 183.105469 C 128.328125 183.105469 128.519531 182.917969 128.671875 182.761719 C 89.695312 221.792969 42.214844 270.660156 27.820312 322.527344 C 26.5 327.117188 26.136719 331.792969 26.691406 336.324219 C 26.917969 334.449219 27.289062 332.578125 27.820312 330.722656 C 42.761719 276.875 128.863281 190.769531 128.863281 190.769531 C 128.863281 190.769531 128.121094 187.449219 128.863281 182.570312 C 92.144531 156.351562 58.253906 135.253906 25.675781 118.324219 L 25.292969 118.125 C 5.648438 107.867188 -3.710938 87.433594 1.523438 66.097656 C 6.894531 44.210938 26.257812 28.320312 47.574219 28.320312 C 54.71875 28.320312 61.675781 30 68.320312 33.316406 C 61.675781 30 54.71875 28.324219 47.574219 28.324219 C 26.257812 28.324219 6.894531 44.210938 1.523438 66.097656 C 0.207031 71.464844 -0.183594 76.773438 0.277344 81.878906 C 0.496094 79.371094 0.898438 76.839844 1.523438 74.292969 C 6.894531 52.402344 26.257812 36.519531 47.574219 36.519531 C 56.003906 36.519531 64.183594 38.855469 71.878906 43.460938 C 111.195312 67.0625 151.003906 95.644531 190.402344 128.558594 C 222.972656 96.371094 257.480469 63.753906 295.519531 29.191406 C 304.289062 21.226562 316.480469 15.660156 328.328125 15.660156 C 337.363281 15.660156 351.546875 20.300781 361.363281 30.945312 C 371.179688 41.59375 374.046875 52.378906 374.71875 60.058594 C 374.832031 58.679688 374.9375 56.816406 374.875 54.570312 C 374.9375 56.847656 374.828125 58.738281 374.710938 60.117188 C 373.625 73.183594 367.238281 85.285156 357.195312 93.324219 L 356.835938 93.605469 C 319.929688 122.929688 286.171875 150.792969 254.113281 178.390625 C 252.660156 179.636719 326.1875 263.457031 349.429688 307.484375 L 349.890625 308.296875 L 358.023438 323.1875 C 360.273438 327.3125 361.664062 331.691406 362.207031 336.109375 C 363.042969 329.066406 361.6875 321.78125 358.109375 315.148438 C 364.0625 326.171875 363.898438 339 357.660156 349.511719 C 351.105469 360.5625 339 367.429688 326.066406 367.429688 M 358.105469 315.144531 C 358.101562 315.132812 358.09375 315.121094 358.089844 315.113281 C 358.09375 315.121094 358.101562 315.132812 358.105469 315.144531 M 358.082031 315.101562 C 358.078125 315.089844 358.074219 315.085938 358.070312 315.078125 C 358.074219 315.085938 358.078125 315.089844 358.082031 315.101562 M 358.0625 315.0625 C 358.058594 315.054688 358.054688 315.046875 358.050781 315.039062 C 358.054688 315.046875 358.058594 315.058594 358.0625 315.0625 M 358.042969 315.027344 C 358.035156 315.015625 358.027344 315 358.023438 314.992188 C 358.027344 315 358.035156 315.015625 358.042969 315.027344 M 190.402344 120.363281 C 173.0625 105.875 155.636719 92.230469 138.214844 79.476562 C 155.636719 92.230469 173.058594 105.875 190.402344 120.363281 C 222.972656 88.175781 257.480469 55.558594 295.519531 20.996094 C 304.289062 13.03125 316.480469 7.464844 328.328125 7.464844 C 316.480469 7.464844 304.289062 13.03125 295.519531 20.996094 C 257.480469 55.558594 222.972656 88.175781 190.402344 120.363281 M 374.875 54.558594 C 374.875 54.554688 374.875 54.554688 374.875 54.554688 C 374.875 54.554688 374.875 54.554688 374.875 54.558594 M 361.40625 22.796875 C 361.40625 22.796875 361.402344 22.796875 361.402344 22.796875 C 361.402344 22.796875 361.40625 22.796875 361.40625 22.796875"/></clipPath><clipPath id="d"><path d="M 93.023438 -157.675781 L -160.699219 275.46875 L 278.207031 532.566406 L 531.929688 99.425781 Z M 93.023438 -157.675781"/></clipPath><clipPath id="f"><path d="M 254 178.066406 L 363 178.066406 L 363 336.734375 L 254 336.734375 Z M 254 178.066406"/></clipPath><clipPath id="g"><path d="M 362.207031 336.109375 C 361.664062 331.691406 360.273438 327.3125 358.023438 323.1875 L 349.890625 308.296875 L 349.429688 307.484375 C 326.1875 263.457031 252.660156 179.636719 254.113281 178.390625 C 292.984375 217.527344 324.261719 257.214844 349.429688 299.292969 L 349.890625 300.101562 L 358.023438 314.992188 C 358.027344 315 358.035156 315.015625 358.042969 315.027344 C 358.046875 315.03125 358.046875 315.035156 358.050781 315.039062 C 358.054688 315.046875 358.058594 315.054688 358.0625 315.0625 C 358.066406 315.066406 358.066406 315.070312 358.070312 315.078125 C 358.074219 315.085938 358.078125 315.089844 358.082031 315.101562 C 358.082031 315.105469 358.085938 315.109375 358.089844 315.113281 C 358.09375 315.121094 358.101562 315.132812 358.105469 315.144531 C 358.109375 315.144531 358.109375 315.144531 358.109375 315.148438 C 361.6875 321.78125 363.042969 329.066406 362.207031 336.109375"/></clipPath><clipPath id="h"><path d="M 362.207031 336.109375 C 361.664062 331.691406 360.273438 327.3125 358.023438 323.1875 L 349.890625 308.296875 L 349.429688 307.484375 C 326.1875 263.457031 252.660156 179.636719 254.113281 178.390625 C 292.984375 217.527344 324.261719 257.214844 349.429688 299.292969 L 349.890625 300.101562 L 358.023438 314.992188 C 358.027344 315 358.035156 315.015625 358.042969 315.027344 C 358.046875 315.03125 358.046875 315.035156 358.050781 315.039062 C 358.054688 315.046875 358.058594 315.054688 358.0625 315.0625 C 358.066406 315.066406 358.066406 315.070312 358.070312 315.078125 C 358.074219 315.085938 358.078125 315.089844 358.082031 315.101562 C 358.082031 315.105469 358.085938 315.109375 358.089844 315.113281 C 358.09375 315.121094 358.101562 315.132812 358.105469 315.144531 C 358.109375 315.144531 358.109375 315.144531 358.109375 315.148438 C 361.6875 321.78125 363.042969 329.066406 362.207031 336.109375"/></clipPath><clipPath id="i"><path d="M 280.859375 130.25 L 183.875 295.820312 L 334.839844 384.25 L 431.828125 218.683594 Z M 280.859375 130.25"/></clipPath><clipPath id="k"><path d="M 68 7.5 L 375 7.5 L 375 80 L 68 80 Z M 68 7.5"/></clipPath><clipPath id="l"><path d="M 0.0507812 7.5 L 375 7.5 L 375 128.703125 L 0.0507812 128.703125 Z M 0.0507812 7.5"/></clipPath><clipPath id="m"><path d="M 190.402344 128.558594 C 151.003906 95.644531 111.195312 67.0625 71.878906 43.460938 C 64.183594 38.855469 56.003906 36.519531 47.574219 36.519531 C 26.257812 36.519531 6.894531 52.402344 1.523438 74.292969 C 0.898438 76.839844 0.496094 79.371094 0.277344 81.878906 C -0.183594 76.773438 0.207031 71.464844 1.523438 66.097656 C 6.894531 44.210938 26.257812 28.324219 47.574219 28.324219 C 54.71875 28.324219 61.675781 30 68.320312 33.316406 C 69.515625 33.910156 70.703125 34.5625 71.878906 35.265625 C 93.886719 48.480469 116.054688 63.253906 138.214844 79.476562 C 155.636719 92.230469 173.0625 105.875 190.402344 120.363281 C 222.972656 88.175781 257.480469 55.558594 295.519531 20.996094 C 304.289062 13.03125 316.480469 7.464844 328.328125 7.464844 C 337.359375 7.464844 351.546875 12.105469 361.363281 22.75 C 361.375 22.765625 361.390625 22.777344 361.402344 22.796875 C 361.402344 22.796875 361.40625 22.796875 361.40625 22.796875 C 372.394531 34.738281 374.648438 46.855469 374.875 54.554688 C 374.875 54.554688 374.875 54.554688 374.875 54.558594 C 374.875 54.5625 374.875 54.566406 374.875 54.570312 C 374.9375 56.816406 374.832031 58.679688 374.71875 60.058594 C 374.046875 52.378906 371.179688 41.59375 361.363281 30.945312 C 351.546875 20.300781 337.363281 15.660156 328.328125 15.660156 C 316.480469 15.660156 304.289062 21.226562 295.519531 29.191406 C 257.480469 63.753906 222.972656 96.371094 190.402344 128.558594"/></clipPath><clipPath id="n"><path d="M 190.402344 128.558594 C 151.003906 95.644531 111.195312 67.0625 71.878906 43.460938 C 64.183594 38.855469 56.003906 36.519531 47.574219 36.519531 C 26.257812 36.519531 6.894531 52.402344 1.523438 74.292969 C 0.898438 76.839844 0.496094 79.371094 0.277344 81.878906 C -0.183594 76.773438 0.207031 71.464844 1.523438 66.097656 C 6.894531 44.210938 26.257812 28.324219 47.574219 28.324219 C 54.71875 28.324219 61.675781 30 68.320312 33.316406 C 69.515625 33.910156 70.703125 34.5625 71.878906 35.265625 C 93.886719 48.480469 116.054688 63.253906 138.214844 79.476562 C 155.636719 92.230469 173.0625 105.875 190.402344 120.363281 C 222.972656 88.175781 257.480469 55.558594 295.519531 20.996094 C 304.289062 13.03125 316.480469 7.464844 328.328125 7.464844 C 337.359375 7.464844 351.546875 12.105469 361.363281 22.75 C 361.375 22.765625 361.390625 22.777344 361.402344 22.796875 C 361.402344 22.796875 361.40625 22.796875 361.40625 22.796875 C 372.394531 34.738281 374.648438 46.855469 374.875 54.554688 C 374.875 54.554688 374.875 54.554688 374.875 54.558594 C 374.875 54.5625 374.875 54.566406 374.875 54.570312 C 374.9375 56.816406 374.832031 58.679688 374.71875 60.058594 C 374.046875 52.378906 371.179688 41.59375 361.363281 30.945312 C 351.546875 20.300781 337.363281 15.660156 328.328125 15.660156 C 316.480469 15.660156 304.289062 21.226562 295.519531 29.191406 C 257.480469 63.753906 222.972656 96.371094 190.402344 128.558594"/></clipPath><clipPath id="o"><path d="M 95.648438 -156.136719 L -52.996094 97.621094 L 279.105469 292.160156 L 427.753906 38.398438 Z M 95.648438 -156.136719"/></clipPath><clipPath id="q"><path d="M 26 182.476562 L 129 182.476562 L 129 336.734375 L 26 336.734375 Z M 26 182.476562"/></clipPath><clipPath id="r"><path d="M 26.691406 336.324219 C 26.136719 331.792969 26.5 327.117188 27.820312 322.527344 C 42.214844 270.660156 89.695312 221.792969 128.671875 182.761719 C 128.757812 182.675781 128.832031 182.601562 128.863281 182.570312 C 128.121094 187.449219 128.863281 190.769531 128.863281 190.769531 C 128.863281 190.769531 42.761719 276.875 27.820312 330.722656 C 27.289062 332.578125 26.917969 334.449219 26.691406 336.324219"/></clipPath><clipPath id="s"><path d="M 26.691406 336.324219 C 26.136719 331.792969 26.5 327.117188 27.820312 322.527344 C 42.214844 270.660156 89.695312 221.792969 128.671875 182.761719 C 128.757812 182.675781 128.832031 182.601562 128.863281 182.570312 C 128.121094 187.449219 128.863281 190.769531 128.863281 190.769531 C 128.863281 190.769531 42.761719 276.875 27.820312 330.722656 C 27.289062 332.578125 26.917969 334.449219 26.691406 336.324219"/></clipPath><clipPath id="t"><path d="M 52.378906 137.773438 L -40.917969 297.046875 L 102.617188 381.125 L 195.914062 221.851562 Z M 52.378906 137.773438"/></clipPath><linearGradient x1="-.342" gradientTransform="scale(454.0002) rotate(30.361 -.43 .578)" xmlns:xlink="http://www.w3.org/1999/xlink" y1="0" x2=".771" gradientUnits="userSpaceOnUse" y2="0" xlink:type="simple" xlink:actuate="onLoad" id="e" xlink:show="other"><stop stop-color="#ED1C24" offset="0"/><stop stop-color="#ED1C24" offset=".25"/><stop stop-color="#ED1C24" offset=".313"/><stop stop-color="#ED1C24" offset=".32"/><stop stop-color="#EC1C24" offset=".328"/><stop stop-color="#EB1C24" offset=".344"/><stop stop-color="#EB1C24" offset=".359"/><stop stop-color="#EA1C23" offset=".375"/><stop stop-color="#E91B23" offset=".383"/><stop stop-color="#E91B23" offset=".391"/><stop stop-color="#E81B23" offset=".406"/><stop stop-color="#E81B23" offset=".422"/><stop stop-color="#E71B23" offset=".438"/><stop stop-color="#E71B23" offset=".445"/><stop stop-color="#E61B23" offset=".453"/><stop stop-color="#E61B23" offset=".461"/><stop stop-color="#E51B23" offset=".469"/><stop stop-color="#E51B23" offset=".477"/><stop stop-color="#E41B22" offset=".484"/><stop stop-color="#E41B22" offset=".492"/><stop stop-color="#E31B22" offset=".5"/><stop stop-color="#E31B22" offset=".516"/><stop stop-color="#E21A22" offset=".523"/><stop stop-color="#E21A22" offset=".531"/><stop stop-color="#E11A22" offset=".547"/><stop stop-color="#E01A22" offset=".563"/><stop stop-color="#DF1A22" offset=".578"/><stop stop-color="#DF1A21" offset=".586"/><stop stop-color="#DE1A21" offset=".594"/><stop stop-color="#DE1A21" offset=".609"/><stop stop-color="#DE1A21" offset=".617"/><stop stop-color="#DD1A21" offset=".625"/><stop stop-color="#DD1A21" offset=".633"/><stop stop-color="#DC1A21" offset=".641"/><stop stop-color="#DC1A21" offset=".648"/><stop stop-color="#DB1A21" offset=".656"/><stop stop-color="#DB1A21" offset=".664"/><stop stop-color="#DB1921" offset=".672"/><stop stop-color="#DA1921" offset=".688"/><stop stop-color="#D91921" offset=".695"/><stop stop-color="#D91920" offset=".703"/><stop stop-color="#D81920" offset=".719"/><stop stop-color="#D81920" offset=".727"/><stop stop-color="#D71920" offset=".734"/><stop stop-color="#D71920" offset=".742"/><stop stop-color="#D61920" offset=".75"/><stop stop-color="#D61920" offset=".766"/><stop stop-color="#D61920" offset=".773"/><stop stop-color="#D51920" offset=".781"/><stop stop-color="#D51920" offset=".789"/><stop stop-color="#D41920" offset=".797"/><stop stop-color="#D41920" offset=".805"/><stop stop-color="#D3181F" offset=".813"/><stop stop-color="#D2181F" offset=".844"/><stop stop-color="#D2181F" offset=".852"/><stop stop-color="#D1181F" offset=".859"/><stop stop-color="#D1181F" offset=".875"/><stop stop-color="#D0181F" offset=".883"/><stop stop-color="#D0181F" offset=".891"/><stop stop-color="#CF181F" offset=".906"/><stop stop-color="#CF181F" offset=".914"/><stop stop-color="#CF181F" offset=".922"/><stop stop-color="#CE181F" offset=".938"/><stop stop-color="#CD181E" offset=".945"/><stop stop-color="#CC171E" offset=".953"/><stop stop-color="#CB171E" offset=".969"/><stop stop-color="#CB171E" offset=".984"/><stop stop-color="#CA171E" offset="1"/></linearGradient><linearGradient x1=".33" gradientTransform="scale(454.0002) rotate(30.361 -.43 .578)" xmlns:xlink="http://www.w3.org/1999/xlink" y1="0" x2=".713" gradientUnits="userSpaceOnUse" y2="0" xlink:type="simple" xlink:actuate="onLoad" id="j" xlink:show="other"><stop stop-color="#832322" offset="0"/><stop stop-color="#832322" offset=".063"/><stop stop-color="#832321" offset=".125"/><stop stop-color="#822321" offset=".156"/><stop stop-color="#812321" offset=".188"/><stop stop-color="#812221" offset=".25"/><stop stop-color="#802221" offset=".375"/><stop stop-color="#7F2220" offset=".438"/><stop stop-color="#7F2220" offset=".5"/><stop stop-color="#7E2220" offset=".563"/><stop stop-color="#7E2120" offset=".625"/><stop stop-color="#7D2120" offset=".688"/><stop stop-color="#7C211F" offset=".75"/><stop stop-color="#7C211F" offset=".781"/><stop stop-color="#7B211F" offset=".813"/><stop stop-color="#7B211F" offset=".875"/><stop stop-color="#7B211F" offset=".938"/><stop stop-color="#7B211F" offset=".969"/><stop stop-color="#7A201F" offset="1"/></linearGradient><linearGradient x1="-.342" gradientTransform="scale(454.0002) rotate(30.361 -.43 .578)" xmlns:xlink="http://www.w3.org/1999/xlink" y1="0" x2=".505" gradientUnits="userSpaceOnUse" y2="0" xlink:type="simple" xlink:actuate="onLoad" id="p" xlink:show="other"><stop stop-color="#8C2624" offset="0"/><stop stop-color="#8C2624" offset=".25"/><stop stop-color="#8C2624" offset=".375"/><stop stop-color="#8C2624" offset=".406"/><stop stop-color="#8B2624" offset=".422"/><stop stop-color="#8B2524" offset=".438"/><stop stop-color="#8B2524" offset=".453"/><stop stop-color="#8A2524" offset=".469"/><stop stop-color="#8A2524" offset=".484"/><stop stop-color="#892524" offset=".5"/><stop stop-color="#892524" offset=".516"/><stop stop-color="#892523" offset=".531"/><stop stop-color="#882523" offset=".563"/><stop stop-color="#882523" offset=".594"/><stop stop-color="#882523" offset=".602"/><stop stop-color="#872423" offset=".609"/><stop stop-color="#872423" offset=".625"/><stop stop-color="#872423" offset=".641"/><stop stop-color="#862423" offset=".656"/><stop stop-color="#852422" offset=".688"/><stop stop-color="#852422" offset=".719"/><stop stop-color="#852422" offset=".727"/><stop stop-color="#842422" offset=".734"/><stop stop-color="#842322" offset=".75"/><stop stop-color="#842322" offset=".766"/><stop stop-color="#842322" offset=".773"/><stop stop-color="#832322" offset=".781"/><stop stop-color="#832322" offset=".813"/><stop stop-color="#832322" offset=".828"/><stop stop-color="#822321" offset=".844"/><stop stop-color="#822321" offset=".859"/><stop stop-color="#822321" offset=".875"/><stop stop-color="#812321" offset=".891"/><stop stop-color="#812221" offset=".906"/><stop stop-color="#812221" offset=".922"/><stop stop-color="#802221" offset=".938"/><stop stop-color="#802220" offset=".969"/><stop stop-color="#7F2220" offset="1"/></linearGradient><linearGradient x1="-.098" gradientTransform="scale(454.0002) rotate(30.361 -.43 .578)" xmlns:xlink="http://www.w3.org/1999/xlink" y1="0" x2=".268" gradientUnits="userSpaceOnUse" y2="0" xlink:type="simple" xlink:actuate="onLoad" id="u" xlink:show="other"><stop stop-color="#8C2624" offset="0"/><stop stop-color="#8C2624" offset=".25"/><stop stop-color="#8C2624" offset=".266"/><stop stop-color="#8B2624" offset=".281"/><stop stop-color="#8B2624" offset=".313"/><stop stop-color="#8B2624" offset=".344"/><stop stop-color="#8B2524" offset=".375"/><stop stop-color="#8B2524" offset=".406"/><stop stop-color="#8A2524" offset=".438"/><stop stop-color="#8A2524" offset=".453"/><stop stop-color="#892524" offset=".469"/><stop stop-color="#892524" offset=".5"/><stop stop-color="#892524" offset=".531"/><stop stop-color="#892523" offset=".563"/><stop stop-color="#892523" offset=".594"/><stop stop-color="#882523" offset=".625"/><stop stop-color="#882523" offset=".688"/><stop stop-color="#882523" offset=".719"/><stop stop-color="#872423" offset=".75"/><stop stop-color="#872423" offset=".813"/><stop stop-color="#872423" offset=".828"/><stop stop-color="#862423" offset=".844"/><stop stop-color="#862423" offset=".875"/><stop stop-color="#862423" offset=".906"/><stop stop-color="#852422" offset=".938"/><stop stop-color="#852422" offset="1"/></linearGradient></defs><path fill="#FFF" d="M-37.5 -37.5H412.5V412.5H-37.5z"/><path fill="#FFF" d="M-37.5 -37.5H412.5V412.5H-37.5z"/><g clip-path="url(#a)"><g clip-path="url(#b)"><g clip-path="url(#c)"><g clip-path="url(#d)"><path fill="url(#e)" d="M 95.828125 -156 L -156.925781 275.476562 L 279.164062 530.929688 L 531.914062 99.453125 Z M 95.828125 -156"/></g></g></g></g><path fill="#CB6CE6" d="M 358.109375 315.148438 C 358.109375 315.144531 358.109375 315.144531 358.105469 315.144531 C 358.109375 315.144531 358.109375 315.144531 358.109375 315.148438 M 358.089844 315.113281 C 358.085938 315.109375 358.082031 315.105469 358.082031 315.101562 C 358.082031 315.105469 358.085938 315.109375 358.089844 315.113281 M 358.070312 315.078125 C 358.066406 315.070312 358.066406 315.066406 358.0625 315.0625 C 358.066406 315.066406 358.066406 315.070312 358.070312 315.078125 M 358.050781 315.039062 C 358.046875 315.035156 358.046875 315.03125 358.042969 315.027344 C 358.046875 315.03125 358.046875 315.035156 358.050781 315.039062 M 358.023438 314.992188 L 349.890625 300.101562 L 349.429688 299.292969 C 324.261719 257.214844 292.984375 217.527344 254.113281 178.390625 C 295.445312 219.78125 325.214844 258.808594 349.429688 299.292969 L 349.890625 300.101562 L 358.023438 314.992188"/><g clip-path="url(#f)"><g clip-path="url(#g)"><g clip-path="url(#h)"><g clip-path="url(#i)"><path fill="url(#j)" d="M 281.796875 130.800781 L 185.136719 295.816406 L 335.164062 383.699219 L 431.828125 218.683594 Z M 281.796875 130.800781"/></g></g></g></g><g clip-path="url(#k)"><path fill="#CB6CE6" d="M 138.214844 79.476562 C 116.054688 63.253906 93.886719 48.480469 71.878906 35.265625 C 70.703125 34.5625 69.515625 33.910156 68.320312 33.316406 C 69.515625 33.910156 70.703125 34.5625 71.878906 35.265625 C 93.886719 48.480469 116.054688 63.253906 138.214844 79.476562 M 374.878906 54.570312 C 374.875 54.566406 374.875 54.5625 374.875 54.558594 C 374.875 54.5625 374.875 54.566406 374.878906 54.570312 M 374.875 54.554688 C 374.648438 46.855469 372.394531 34.738281 361.40625 22.796875 C 372.398438 34.742188 374.648438 46.855469 374.875 54.554688 M 361.402344 22.796875 C 361.390625 22.777344 361.375 22.765625 361.363281 22.75 C 361.375 22.765625 361.390625 22.777344 361.402344 22.796875 M 361.363281 22.75 C 351.546875 12.105469 337.359375 7.464844 328.328125 7.464844 C 337.363281 7.464844 351.546875 12.105469 361.363281 22.75"/></g><g clip-path="url(#l)"><g clip-path="url(#m)"><g clip-path="url(#n)"><g clip-path="url(#o)"><path fill="url(#p)" d="M 95.828125 -156 L -52.746094 97.632812 L 279.164062 292.058594 L 427.738281 38.429688 Z M 95.828125 -156"/></g></g></g></g><path fill="#CB6CE6" d="M 128.671875 182.761719 C 128.734375 182.699219 128.800781 182.636719 128.863281 182.570312 C 128.832031 182.601562 128.757812 182.675781 128.671875 182.761719"/><g clip-path="url(#q)"><g clip-path="url(#r)"><g clip-path="url(#s)"><g clip-path="url(#t)"><path fill="url(#u)" d="M 52.382812 137.769531 L -40.917969 297.042969 L 102.617188 381.125 L 195.917969 221.851562 Z M 52.382812 137.769531"/></g></g></g></g></svg>