<svg xmlns="http://www.w3.org/2000/svg" width="375" viewBox="0 0 375 375" height="375" version="1.0"><path fill="#FFF" d="M-37.5 -37.5H412.5V412.5H-37.5z"/><path fill="#FFF" d="M-37.5 -37.5H412.5V412.5H-37.5z"/><path stroke-linecap="round" transform="matrix(2.63147 2.67205 -2.67186 2.63128 7.724 6.157)" fill="none" d="M 4.00047 0.00025924 L 128.391599 -0.000108204" stroke="#000"/><path transform="matrix(2.63147 2.67205 -2.67186 2.63128 7.724 6.157)" d="M 3.499619 -0.00032698 C 3.500375 0.0983705 3.490077 0.196416 3.47093 0.293056 C 3.451783 0.389696 3.423775 0.483457 3.385434 0.574351 C 3.348566 0.665234 3.302084 0.751035 3.247473 0.833214 C 3.192861 0.915394 3.130097 0.991007 3.060655 1.060041 C 2.991223 1.130549 2.915101 1.193005 2.833761 1.247399 C 2.750949 1.301804 2.664392 1.348135 2.57409 1.386392 C 2.483046 1.423918 2.38972 1.451887 2.292649 1.471781 C 2.195567 1.490202 2.098417 1.499785 2.000457 1.499798 C 1.901025 1.499822 1.803728 1.490255 1.707095 1.471106 C 1.610462 1.451958 1.516707 1.423948 1.42582 1.385605 C 1.334943 1.348734 1.248407 1.301518 1.166233 1.246903 C 1.084801 1.193018 1.009194 1.13025 0.939422 1.060071 C 0.869662 0.991366 0.80721 0.915238 0.75282 0.833893 C 0.698419 0.751074 0.652091 0.664511 0.613837 0.574203 C 0.576313 0.483153 0.547605 0.389089 0.528454 0.292742 C 0.509303 0.196395 0.500452 0.0984964 0.499697 -0.00020102 C 0.499684 -0.0981675 0.509981 -0.196213 0.529128 -0.292853 C 0.548275 -0.389493 0.576283 -0.483254 0.614624 -0.574149 C 0.651492 -0.665031 0.698705 -0.751574 0.752585 -0.833011 C 0.807197 -0.915191 0.869961 -0.990804 0.939392 -1.061311 C 1.008835 -1.130346 1.084957 -1.192802 1.166297 -1.247196 C 1.248367 -1.302332 1.334924 -1.348663 1.425968 -1.386189 C 1.517012 -1.423715 1.610338 -1.451684 1.707409 -1.471578 C 1.803749 -1.49073 1.901641 -1.499582 2.000332 -1.500337 C 2.098291 -1.50035 2.19633 -1.490052 2.292963 -1.470903 C 2.389596 -1.451755 2.483351 -1.423746 2.574238 -1.385402 C 2.665115 -1.348531 2.750909 -1.302046 2.833083 -1.247431 C 2.915257 -1.192815 2.990864 -1.130047 3.060624 -1.061341 C 3.130396 -0.991163 3.192848 -0.915035 3.247238 -0.83369 C 3.30237 -0.751614 3.348698 -0.66505 3.386221 -0.574 C 3.423745 -0.48295 3.451711 -0.389617 3.471604 -0.292539 C 3.490755 -0.196192 3.499606 -0.0982935 3.499619 -0.00032698 Z M 3.499619 -0.00032698" stroke="#000"/><path transform="matrix(2.63147 2.67205 -2.67186 2.63128 356.106 359.914)" d="M -0.500235 0.00040047 C -0.500222 0.098367 -0.509789 0.19567 -0.528936 0.29231 C -0.548083 0.38895 -0.576091 0.482712 -0.614432 0.573606 C -0.652031 0.665231 -0.69777 0.751762 -0.753124 0.833211 C -0.807736 0.91539 -0.869026 0.990992 -0.9392 1.060769 C -1.009374 1.130545 -1.084765 1.192259 -1.166836 1.247395 C -1.248175 1.301789 -1.334732 1.34812 -1.425776 1.385646 C -1.51682 1.423173 -1.610877 1.451883 -1.707217 1.471035 C -1.803557 1.490187 -1.901438 1.500512 -2.000139 1.499794 C -2.098099 1.499808 -2.196126 1.490982 -2.292028 1.471092 C -2.388662 1.451943 -2.483159 1.423203 -2.574035 1.386332 C -2.664923 1.347988 -2.751448 1.302245 -2.833622 1.24763 C -2.915065 1.192272 -2.991403 1.130246 -3.060432 1.060799 C -3.130204 0.99062 -3.191914 0.915223 -3.247046 0.833147 C -3.302178 0.751071 -3.347763 0.665239 -3.385287 0.574188 C -3.423553 0.482407 -3.451519 0.389074 -3.47067 0.292727 C -3.490563 0.19565 -3.500145 0.098493 -3.500158 0.000526431 C -3.500182 -0.0989132 -3.490615 -0.196216 -3.471468 -0.292856 C -3.452321 -0.389496 -3.423572 -0.482527 -3.385973 -0.574152 C -3.347632 -0.665046 -3.301892 -0.751577 -3.247281 -0.833757 C -3.191927 -0.915206 -3.130636 -0.990807 -3.060462 -1.060584 C -2.991019 -1.129618 -2.915639 -1.192805 -2.832827 -1.24721 C -2.751487 -1.301604 -2.66493 -1.347935 -2.573887 -1.385462 C -2.482843 -1.422988 -2.388786 -1.451698 -2.292446 -1.47085 C -2.196106 -1.490003 -2.098225 -1.500327 -2.000265 -1.500341 C -1.901564 -1.499623 -1.804267 -1.490055 -1.707634 -1.470907 C -1.611001 -1.451758 -1.517246 -1.423749 -1.425627 -1.386147 C -1.33474 -1.347804 -1.248215 -1.302061 -1.166772 -1.246703 C -1.084598 -1.192088 -1.009002 -1.130793 -0.93923 -1.060614 C -0.870201 -0.991166 -0.807749 -0.915039 -0.752617 -0.832962 C -0.698227 -0.751617 -0.651899 -0.665054 -0.614375 -0.574004 C -0.576852 -0.482954 -0.548143 -0.38889 -0.528993 -0.292543 C -0.509842 -0.196196 -0.499518 -0.0983082 -0.500235 0.00040047 Z M -0.500235 0.00040047" stroke="#000"/></svg>